<svg width="62" height="63" viewBox="0 0 62 63" fill="none" xmlns="http://www.w3.org/2000/svg">
<g filter="url(#filter0_d_36_51)">
<circle cx="31" cy="27.2324" r="17" fill="white"/>
</g>
<g clip-path="url(#clip0_36_51)">
<path d="M35.9972 32.2324V32.232H36V28.1977C36 26.2241 35.5751 24.7039 33.2678 24.7039C32.1587 24.7039 31.4143 25.3125 31.1105 25.8896H31.0784V24.8881H28.8907V32.232H31.1687V28.5956C31.1687 27.6381 31.3502 26.7123 32.5359 26.7123C33.7042 26.7123 33.7216 27.8049 33.7216 28.657V32.2324H35.9972Z" fill="black"/>
<path d="M25.1815 24.8885H27.4622V32.2324H25.1815V24.8885Z" fill="black"/>
<path d="M26.3209 21.2324C25.5917 21.2324 25 21.8241 25 22.5533C25 23.2825 25.5917 23.8866 26.3209 23.8866C27.0501 23.8866 27.6418 23.2825 27.6418 22.5533C27.6414 21.8241 27.0497 21.2324 26.3209 21.2324V21.2324Z" fill="black"/>
</g>
<defs>
<filter id="filter0_d_36_51" x="0" y="0.232422" width="62" height="62" filterUnits="userSpaceOnUse" color-interpolation-filters="sRGB">
<feFlood flood-opacity="0" result="BackgroundImageFix"/>
<feColorMatrix in="SourceAlpha" type="matrix" values="0 0 0 0 0 0 0 0 0 0 0 0 0 0 0 0 0 0 127 0" result="hardAlpha"/>
<feOffset dy="4"/>
<feGaussianBlur stdDeviation="7"/>
<feColorMatrix type="matrix" values="0 0 0 0 0 0 0 0 0 0 0 0 0 0 0 0 0 0 0.15 0"/>
<feBlend mode="normal" in2="BackgroundImageFix" result="effect1_dropShadow_36_51"/>
<feBlend mode="normal" in="SourceGraphic" in2="effect1_dropShadow_36_51" result="shape"/>
</filter>
<clipPath id="clip0_36_51">
<rect width="11" height="11" fill="white" transform="translate(25 21.2324)"/>
</clipPath>
</defs>
</svg>
